General                          : ChattChitto RG - Movies

Complete name                    : Kick Ass 2010 R5.mp4
Format                           : MPEG-4
Format profile                   : Base Media
Codec ID                         : isom
File size                        : 1.50 GiB
Duration                         : 1h 52mn
Overall bit rate                 : 1 902 Kbps
Encoded date                     : UTC 2010-05-09 16:18:08

Video
==========
ID                               : 1
Format                           : AVC
Format/Info                      : Advanced Video Codec
Format profile                   : High@L3.0
Format settings, CABAC           : Yes
Format settings, ReFrames        : 3 frames
Codec ID                         : avc1
Codec ID/Info                    : Advanced Video Coding
Duration                         : 1h 52mn
Bit rate mode                    : Variable
Bit rate                         : 1 643 Kbps
Maximum bit rate                 : 7 926 Kbps
Width                            : 720 pixels
Height                           : 304 pixels
Display aspect ratio             : 2.35:1
Frame rate mode                  : Constant
Frame rate                       : 29.970 fps
Resolution                       : 8 bits
Colorimetry                      : 4:2:0
Scan type                        : Progressive
Bits/(Pixel*Frame)               : 0.250
Stream size                      : 1.30 GiB (86%)
Writing library                  : x264 core 76 r1271 496d79d
Encoded date                     : UTC 2010-05-09 16:14:21

Audio
==========
ID                               : 2
Format                           : AAC
Format/Info                      : Advanced Audio Codec
Format version                   : Version 4
Format profile                   : LC
Format settings, SBR             : No
Codec ID                         : 40
Duration                         : 1h 52mn
Bit rate mode                    : Variable
Bit rate                         : 255 Kbps
Maximum bit rate                 : 341 Kbps
Channel(s)                       : 2 channels
Channel positions                : Front: L R
Sampling rate                    : 48.0 KHz
Stream size                      : 206 MiB (13%)
Encoded date                     : UTC 2010-05-09 16:18:58

Subtitles                        : Dutch | Spanish



----------------------------------------------------
IMDB Link: http://www.imdb.com/title/tt1250777/
----------------------------------------------------


Screen Shots:
============== 
http://bayimg.com/iAMdJAaCi 
http://bayimg.com/IaMDiAaCi 
http://bayimg.com/iAMdHaaci 
http://bayimg.com/iAmDgaacI 
http://bayimg.com/iaMDDaaCI



Plot:
======
Dave Lizewski is an unnoticed high school student and comic book fan who one day decides to become a super-hero, even though he has no powers, training or meaningful reason to do so.




Release Info:
==============
original name .... : Kick Ass 2010 R5.mp4
ripper.............: Prism
encoder............: Recalled2Life (R2L)
video codec........: H264/.MP4
video bitrate......: 1643 Kbps
audio codec........: AAC-LC
aspect ratio.......: 2.35:1
resolution.........: 720 x 304
genre..............: Action | Crime | Thriller
runtime............: 1h 52mn
language...........: English
rating.............: R
subtitles..........: Dutch | Spanish
sample.............: Yes [7.96 MB]
2ch Audio..........: 2ch Audio for XBox Viewers  
Compatibility .....: XBox 360 | PS3 | WD Live   



Source:
========
Kick Ass 2010 R5 NTSC DVDR-Prism [4.35 GB]


Notes:
=======
ChattChitto RG Encourages Burning this Film with ConvertXtoDVD.
XBox 360 | PS3 | WD Live - Compatible
Enhanced and Filtered for your viewing pleasure ;)